<?xml version="1.0" encoding="utf-8"?>
<!-- Generator: Adobe Illustrator 22.1.0, SVG Export Plug-In . SVG Version: 6.00 Build 0)  -->
<svg version="1.1" id="Layer_1" xmlns="http://www.w3.org/2000/svg" xmlns:xlink="http://www.w3.org/1999/xlink" x="0px" y="0px"
	 viewBox="0 0 115 54" style="enable-background:new 0 0 115 54;" xml:space="preserve">
<style type="text/css">
	.st0{fill:#FFFFFF;}
	.st1{fill:url(#SVGID_1_);}
</style>
<g>
	<g id="Page-1">
		<path id="logo" class="st0" d="M77.1,21.4c1.8,0,2.5,1.1,2.5,2.5c0,1.3-0.7,2.5-2.5,2.5H74v-4.9H77.1z M74,28.4h3.2
			c3.2,0,4.7-2.1,4.7-4.5s-1.5-4.5-4.7-4.5h-5.3v13.9H74V28.4z M83.7,33.2h8.2v-2.1h-6.1V19.3h-2.1V33.2z M102,33.2h2.2l-4.9-13.9
			h-2.2l-4.9,13.9h2.2l1.2-3.4h5.2L102,33.2z M96.3,27.9l1.9-5.5l1.9,5.5H96.3z M110,27.9v5.3h-2.1v-5.3l-4.9-8.6h2.3l3.6,6.4
			l3.6-6.4h2.3L110,27.9z M49.5,14.4C42.9,10,37.8,0.5,24.3,0.5C9,0.5,1,14.4,1,26.3C1,43.6,15.7,54,33.6,54
			c16.4,0,28.9-11.9,28.9-21.4C62.5,23.6,56.8,19.2,49.5,14.4z M37.3,38.2c-1.4,0-2.5-3.3-2.5-7.4c0-4.1,1.1-7.4,2.5-7.4
			c1.4,0,2.5,3.3,2.5,7.4C39.8,34.9,38.7,38.2,37.3,38.2z M37.2,16.7c1.4,0,2.5,1.1,2.5,2.5c0,1.4-1.1,2.5-2.5,2.5
			c-1.4,0-2.5-1.1-2.5-2.5C34.8,17.8,35.9,16.7,37.2,16.7z M26,38.2c-4.1,0-6.9-3.3-6.9-7.4c0-4.1,2.8-7.4,6.9-7.4
			c4.1,0,6.9,3.3,6.9,7.4C32.9,34.9,30.2,38.2,26,38.2z M26,26.9c-1.9,0-2.9,1.9-2.9,3.9c0,2,1.1,3.9,2.9,3.9c1.9,0,2.9-1.9,2.9-3.9
			C29,28.8,27.9,26.9,26,26.9z"/>
	</g>
	<g>
		<linearGradient id="SVGID_1_" gradientUnits="userSpaceOnUse" x1="11.0781" y1="47.3503" x2="47.6749" y2="10.7535">
			<stop  offset="0" style="stop-color:#FFFF00"/>
			<stop  offset="8.508620e-02" style="stop-color:#C6F505"/>
			<stop  offset="0.1984" style="stop-color:#80E90B"/>
			<stop  offset="0.3008" style="stop-color:#49DF10"/>
			<stop  offset="0.3883" style="stop-color:#21D814"/>
			<stop  offset="0.4576" style="stop-color:#09D416"/>
			<stop  offset="0.5" style="stop-color:#00D217"/>
			<stop  offset="0.5455" style="stop-color:#00D220"/>
			<stop  offset="0.6197" style="stop-color:#00D138"/>
			<stop  offset="0.7135" style="stop-color:#00D060"/>
			<stop  offset="0.8232" style="stop-color:#00CF97"/>
			<stop  offset="0.9448" style="stop-color:#00CEDD"/>
			<stop  offset="1" style="stop-color:#00CDFF"/>
		</linearGradient>
		<path class="st1" d="M62.5,32.6c0,9.6-12.5,21.4-28.9,21.4C15.7,54,1,43.6,1,26.3C1,14.4,9,0.5,24.3,0.5
			c13.6,0,18.6,9.5,25.2,13.9C56.8,19.2,62.5,23.6,62.5,32.6z"/>
	</g>
	<path class="st0" d="M37.2,21.6c1.4,0,2.5-1.1,2.5-2.5c0-1.4-1.1-2.5-2.5-2.5c-1.4,0-2.5,1.1-2.5,2.5
		C34.8,20.5,35.9,21.6,37.2,21.6z M37.3,23.5c-1.4,0-2.5,3.3-2.5,7.4c0,4.1,1.1,7.4,2.5,7.4c1.4,0,2.5-3.3,2.5-7.4
		C39.8,26.8,38.7,23.5,37.3,23.5z M26,23.5c-4.1,0-6.9,3.3-6.9,7.4c0,4.1,2.8,7.4,6.9,7.4c4.1,0,6.9-3.3,6.9-7.4
		C32.9,26.7,30.2,23.5,26,23.5z M26,34.7c-1.9,0-2.9-1.9-2.9-3.9c0-2,1.1-3.9,2.9-3.9c1.9,0,2.9,1.9,2.9,3.9
		C29,32.8,27.9,34.7,26,34.7z"/>
</g>
<title>logo</title>
<desc>Created with Sketch.</desc>
</svg>
